<svg width="129" height="31" viewBox="0 0 129 31" fill="none" xmlns="http://www.w3.org/2000/svg">
<path d="M45.65 24H41.1L35.5 15.9V24H31.5V6.5H35.5V14.1L40.85 6.5H45.4L39.5 15.025L45.65 24ZM47.0244 10V6.5H50.7744V10H47.0244ZM47.0244 24V11.5H50.7744V24H47.0244ZM60.5186 11.15C61.7019 11.15 62.6602 11.5917 63.3936 12.475C64.1436 13.3417 64.5186 14.5417 64.5186 16.075V24H60.7686V16.4C60.7686 15.8 60.6102 15.35 60.2936 15.05C59.9936 14.75 59.5936 14.6 59.0936 14.6C57.8769 14.6 57.2686 15.3 57.2686 16.7V24H53.5186V11.5H57.2686V12.65C57.9186 11.65 59.0019 11.15 60.5186 11.15ZM77.6463 22.45C76.363 23.7167 74.7963 24.35 72.9463 24.35C71.0963 24.35 69.5296 23.7167 68.2463 22.45C66.963 21.1667 66.3213 19.6 66.3213 17.75C66.3213 15.9 66.963 14.3417 68.2463 13.075C69.5296 11.7917 71.0963 11.15 72.9463 11.15C74.7963 11.15 76.363 11.7917 77.6463 13.075C78.9296 14.3417 79.5713 15.9 79.5713 17.75C79.5713 19.6 78.9296 21.1667 77.6463 22.45ZM70.8963 19.875C71.4463 20.425 72.1296 20.7 72.9463 20.7C73.763 20.7 74.4463 20.425 74.9963 19.875C75.5463 19.325 75.8213 18.6167 75.8213 17.75C75.8213 16.8833 75.5463 16.175 74.9963 15.625C74.4463 15.075 73.763 14.8 72.9463 14.8C72.1296 14.8 71.4463 15.075 70.8963 15.625C70.3463 16.175 70.0713 16.8833 70.0713 17.75C70.0713 18.6167 70.3463 19.325 70.8963 19.875Z" fill="#3657CB"/>
<path d="M83.1674 12.4C84.1674 11.5667 85.4007 11.15 86.8674 11.15C88.3341 11.15 89.5674 11.5833 90.5674 12.45C91.5674 13.3 92.0674 14.525 92.0674 16.125V24H88.4174V23.025C87.6507 23.9083 86.5757 24.35 85.1924 24.35C84.0257 24.35 83.0424 24.0083 82.2424 23.325C81.459 22.6417 81.0674 21.6833 81.0674 20.45C81.0674 19.2167 81.459 18.2583 82.2424 17.575C83.0424 16.8917 84.0257 16.55 85.1924 16.55C86.4924 16.55 87.5674 16.8667 88.4174 17.5V16.375C88.4174 15.1917 87.9007 14.6 86.8674 14.6C86.3674 14.6 85.984 14.7167 85.7174 14.95C85.4507 15.1833 85.3174 15.4917 85.3174 15.875H81.6674C81.6674 14.3917 82.1674 13.2333 83.1674 12.4ZM86.5174 21.7C87.1174 21.7 87.584 21.5833 87.9174 21.35C88.2507 21.1167 88.4174 20.8167 88.4174 20.45C88.4174 20.0667 88.2507 19.7667 87.9174 19.55C87.584 19.3167 87.1174 19.2 86.5174 19.2C85.9674 19.2 85.5424 19.3167 85.2424 19.55C84.959 19.7667 84.8174 20.0667 84.8174 20.45C84.8174 20.8333 84.959 21.1417 85.2424 21.375C85.5424 21.5917 85.9674 21.7 86.5174 21.7ZM98.2354 13.475C98.4354 12.7583 98.827 12.2083 99.4104 11.825C99.9937 11.4417 100.685 11.25 101.485 11.25V15.5C100.619 15.3667 99.8604 15.5083 99.2104 15.925C98.5604 16.3417 98.2354 17.0667 98.2354 18.1V24H94.4854V11.5H98.2354V13.475ZM106.159 19.25C106.576 20.6333 107.551 21.325 109.084 21.325C109.534 21.325 109.959 21.2417 110.359 21.075C110.759 20.8917 111.051 20.6583 111.234 20.375L114.884 20.35C114.484 21.65 113.768 22.6417 112.734 23.325C111.701 24.0083 110.468 24.35 109.034 24.35C107.001 24.35 105.359 23.725 104.109 22.475C102.859 21.225 102.234 19.65 102.234 17.75C102.234 15.8667 102.859 14.3 104.109 13.05C105.376 11.7833 106.984 11.15 108.934 11.15C110.751 11.15 112.251 11.775 113.434 13.025C114.634 14.275 115.234 15.85 115.234 17.75C115.234 18.2833 115.184 18.7833 115.084 19.25H106.159ZM106.134 16.4H111.509C111.143 15.1167 110.276 14.475 108.909 14.475C107.476 14.475 106.551 15.1167 106.134 16.4ZM118.788 12.4C119.788 11.5667 121.021 11.15 122.488 11.15C123.954 11.15 125.188 11.5833 126.188 12.45C127.188 13.3 127.688 14.525 127.688 16.125V24H124.038V23.025C123.271 23.9083 122.196 24.35 120.813 24.35C119.646 24.35 118.663 24.0083 117.863 23.325C117.079 22.6417 116.688 21.6833 116.688 20.45C116.688 19.2167 117.079 18.2583 117.863 17.575C118.663 16.8917 119.646 16.55 120.813 16.55C122.113 16.55 123.188 16.8667 124.038 17.5V16.375C124.038 15.1917 123.521 14.6 122.488 14.6C121.988 14.6 121.604 14.7167 121.338 14.95C121.071 15.1833 120.938 15.4917 120.938 15.875H117.288C117.288 14.3917 117.788 13.2333 118.788 12.4ZM122.138 21.7C122.738 21.7 123.204 21.5833 123.538 21.35C123.871 21.1167 124.038 20.8167 124.038 20.45C124.038 20.0667 123.871 19.7667 123.538 19.55C123.204 19.3167 122.738 19.2 122.138 19.2C121.588 19.2 121.163 19.3167 120.863 19.55C120.579 19.7667 120.438 20.0667 120.438 20.45C120.438 20.8333 120.579 21.1417 120.863 21.375C121.163 21.5917 121.588 21.7 122.138 21.7Z" fill="white"/>
<path d="M13.2656 9.49157C13.2656 8.09583 12.1301 6.96033 10.7344 6.96033C9.33863 6.96033 8.20312 8.09583 8.20312 9.49157C8.20312 10.8873 9.33863 12.0228 10.7344 12.0228C12.1301 12.0228 13.2656 10.8873 13.2656 9.49157ZM9.14062 9.49157C9.14062 8.61276 9.85556 7.89783 10.7344 7.89783C11.6132 7.89783 12.3281 8.61276 12.3281 9.49157C12.3281 10.3704 11.6132 11.0853 10.7344 11.0853C9.85556 11.0853 9.14062 10.3704 9.14062 9.49157Z" fill="white"/>
<path d="M6.64567 15.5527C7.24797 15.2458 7.69469 14.7227 7.90361 14.0799C8.11248 13.437 8.05853 12.7512 7.75164 12.1489C7.44475 11.5467 6.92167 11.0999 6.27883 10.891C5.63589 10.6821 4.95016 10.7361 4.34791 11.043C3.74561 11.3499 3.29889 11.873 3.08997 12.5158C2.88109 13.1587 2.93505 13.8445 3.24194 14.4467C3.54883 15.049 4.07191 15.4957 4.71475 15.7046C4.97219 15.7883 5.23642 15.8298 5.49944 15.8298C5.89333 15.8298 6.2845 15.7367 6.64567 15.5527ZM5.00444 14.813C4.59972 14.6816 4.27042 14.4003 4.0772 14.0211C3.88398 13.642 3.85 13.2102 3.98153 12.8055C4.11302 12.4008 4.39427 12.0715 4.77344 11.8783C5.00083 11.7624 5.24706 11.7038 5.49508 11.7038C5.66064 11.7038 5.82705 11.73 5.98909 11.7826C6.39381 11.9141 6.72311 12.1954 6.91633 12.5745C7.10955 12.9537 7.14353 13.3854 7.012 13.7901C6.88052 14.1949 6.59927 14.5241 6.22009 14.7174C5.84088 14.9105 5.40916 14.9445 5.00444 14.813Z" fill="white"/>
<path d="M6.00729 21.5042C6.4556 21.8299 6.97591 21.9867 7.49168 21.9867C8.27506 21.9867 9.04812 21.625 9.54274 20.9442C9.94015 20.3972 10.1007 19.7283 9.99495 19.0605C9.88915 18.3927 9.52971 17.8061 8.98273 17.4088C8.43574 17.0114 7.76688 16.8507 7.09901 16.9566C6.43123 17.0623 5.84463 17.4218 5.44727 17.9687C4.62701 19.0978 4.87821 20.6838 6.00729 21.5042ZM6.20581 18.5198C6.45598 18.1754 6.82531 17.9491 7.24573 17.8825C7.33015 17.8691 7.41457 17.8625 7.49843 17.8625C7.83218 17.8625 8.15656 17.9673 8.43176 18.1673C9.14266 18.6838 9.30082 19.6823 8.78431 20.3932C8.26779 21.1041 7.26926 21.2623 6.55835 20.7458C5.84745 20.2292 5.68929 19.2307 6.20581 18.5198Z" fill="white"/>
<path d="M13.9764 21.9866C14.4922 21.9866 15.0126 21.8298 15.4609 21.5042C16.5899 20.6838 16.8411 19.0978 16.0208 17.9687C15.6234 17.4218 15.0368 17.0623 14.3691 16.9565C13.7013 16.8508 13.0324 17.0114 12.4854 17.4087C11.9384 17.8061 11.5789 18.3927 11.4732 19.0605C11.3674 19.7282 11.528 20.3972 11.9254 20.9442C12.4201 21.6251 13.1929 21.9866 13.9764 21.9866ZM13.0364 18.1672C13.3807 17.917 13.8018 17.8158 14.2224 17.8825C14.6428 17.9491 15.0121 18.1754 15.2623 18.5198C15.7788 19.2307 15.6207 20.2292 14.9097 20.7457C14.1988 21.2622 13.2003 21.1041 12.6838 20.3932C12.1673 19.6823 12.3255 18.6837 13.0364 18.1672Z" fill="white"/>
<path d="M15.1913 10.8909C14.5484 11.0999 14.0253 11.5466 13.7185 12.1489C13.4116 12.7512 13.3577 13.4369 13.5665 14.0798C13.7755 14.7227 14.2222 15.2458 14.8245 15.5526C15.1856 15.7366 15.5768 15.8297 15.9707 15.8297C16.2337 15.8297 16.4981 15.7882 16.7554 15.7046C17.3983 15.4957 17.9214 15.049 18.2282 14.4467C18.5351 13.8444 18.5891 13.1587 18.3802 12.5158C18.1713 11.8729 17.7245 11.3498 17.1222 11.043C16.52 10.7361 15.8342 10.6822 15.1913 10.8909ZM16.6967 11.8783C17.0758 12.0715 17.3571 12.4007 17.4886 12.8055C17.6201 13.2102 17.5861 13.6419 17.3929 14.0211C17.1997 14.4003 16.8704 14.6815 16.4657 14.813C16.0609 14.9445 15.6292 14.9106 15.2501 14.7173C14.8709 14.5241 14.5896 14.1949 14.4581 13.7901C14.3266 13.3854 14.3606 12.9537 14.5538 12.5745C14.747 12.1953 15.0763 11.9141 15.4811 11.7826C15.6431 11.7299 15.8095 11.7038 15.9751 11.7038C16.223 11.7038 16.4693 11.7624 16.6967 11.8783Z" fill="white"/>
<path d="M12.3399 15C12.3399 14.1137 11.6188 13.3926 10.7324 13.3926C9.84608 13.3926 9.125 14.1137 9.125 15C9.125 15.8864 9.84608 16.6075 10.7324 16.6075C11.6188 16.6075 12.3399 15.8864 12.3399 15ZM10.0625 15C10.0625 14.6306 10.363 14.3301 10.7324 14.3301C11.1019 14.3301 11.4024 14.6306 11.4024 15C11.4024 15.3694 11.1019 15.67 10.7324 15.67C10.363 15.67 10.0625 15.3694 10.0625 15Z" fill="white"/>
<path d="M23.8627 23.7073C23.3326 23.1772 22.6279 22.8853 21.8783 22.8853C21.1287 22.8853 20.424 23.1772 19.8939 23.7073C19.1913 24.4099 18.2571 24.7969 17.2634 24.7969H15.1344C16.3078 24.2693 17.3877 23.5273 18.3247 22.5903C20.3522 20.5629 21.4688 17.8673 21.4688 15C21.4688 12.9028 20.8638 10.871 19.7192 9.12427C19.5774 8.9077 19.2868 8.84719 19.0702 8.98908C18.8537 9.13097 18.7932 9.42155 18.9351 9.63806C19.9793 11.2317 20.5312 13.0859 20.5312 15C20.5312 20.402 16.1364 24.7969 10.7344 24.7969C5.33236 24.7969 0.9375 20.402 0.9375 15C0.9375 9.59798 5.33236 5.20312 10.7344 5.20312C12.6517 5.20312 14.5086 5.75681 16.104 6.80438C16.3204 6.9465 16.611 6.88627 16.7531 6.6698C16.8952 6.45338 16.835 6.1628 16.6185 6.02067C14.8698 4.87252 12.8351 4.26562 10.7344 4.26562C7.86713 4.26562 5.17148 5.38219 3.14405 7.40967C1.11661 9.43716 0 12.1328 0 15C0 17.8673 1.11656 20.5629 3.14405 22.5904C5.17148 24.6178 7.86713 25.7344 10.7344 25.7344H17.2634C18.5075 25.7344 19.6771 25.2499 20.5568 24.3702C20.9098 24.0172 21.3791 23.8228 21.8783 23.8228C22.3775 23.8228 22.8468 24.0172 23.1998 24.3702C23.3828 24.5532 23.6796 24.5532 23.8627 24.3702C24.0458 24.1871 24.0458 23.8903 23.8627 23.7073Z" fill="white"/>
<path d="M17.9961 8.21291C18.1194 8.21291 18.2403 8.16322 18.3275 8.07604C18.4147 7.98838 18.4648 7.86791 18.4648 7.74463C18.4648 7.62088 18.4147 7.50041 18.3275 7.41275C18.2403 7.32557 18.1194 7.27588 17.9961 7.27588C17.8728 7.27588 17.7519 7.32557 17.6647 7.41275C17.5775 7.50041 17.5273 7.62088 17.5273 7.74463C17.5273 7.86791 17.5775 7.98885 17.6647 8.07604C17.7519 8.16322 17.8728 8.21291 17.9961 8.21291Z" fill="white"/>
</svg>
